<svg width="119" height="112" viewBox="0 0 119 112" fill="none" xmlns="http://www.w3.org/2000/svg">
<g id="Group">
<g id="Group_2">
<path id="Vector" d="M22.9873 42.2331C20.1104 30.9069 42.132 34.5534 39.7674 25.2415L41.7236 32.9416C43.954 41.7256 22.2587 39.3635 24.9434 49.9344L22.9873 42.2331Z" fill="#0334F2"/>
<path id="Vector_2" d="M28.667 64.5954C25.7901 53.2692 47.8116 56.9157 45.4471 47.6038L47.4033 55.3051C49.6337 64.0891 27.9384 61.727 30.6231 72.2968L28.667 64.5954Z" fill="#0334F2"/>
<path id="Vector_3" d="M45.6851 48.5438C42.8082 37.2177 25.1956 50.9289 22.8311 41.6169L24.7872 49.3183C27.0176 58.1023 44.9577 45.6743 47.6412 56.2452L45.6851 48.5438Z" fill="#011666"/>
<path id="Vector_4" d="M37.5996 67.8638C34.1319 68.074 29.3448 67.2669 28.4072 63.5757L30.3634 71.2771C31.1451 74.3569 34.7602 75.5482 38.0853 75.6702C40.0717 75.7427 41.5759 73.8977 41.0878 71.9718L40.6105 70.0942C40.2638 68.7301 39.0048 67.7792 37.5996 67.8638Z" fill="#011666"/>
<path id="Vector_5" d="M32.7844 29.6504C36.2521 29.4402 41.0391 30.2473 41.9767 33.9385L40.0206 26.2371C39.2388 23.1573 35.6238 21.966 32.2987 21.8439C30.3123 21.7702 28.8068 23.6152 29.2962 25.5424L29.7734 27.42C30.1202 28.7841 31.3792 29.735 32.7844 29.6504Z" fill="#011666"/>
</g>
<g id="Group_3">
<path id="Vector_6" d="M47.8695 75.3549C48.6198 63.6929 68.4484 73.9424 69.0658 64.355L68.5547 72.2835C67.9723 81.3273 48.0592 72.3995 47.3584 83.2834L47.8695 75.3549Z" fill="#0334F2"/>
<path id="Vector_7" d="M46.3851 98.3805C47.1366 86.7185 66.9652 96.9681 67.5826 87.3806L67.0715 95.3091C66.4892 104.353 46.576 95.4251 45.874 106.309L46.3851 98.3805Z" fill="#0334F2"/>
<path id="Vector_8" d="M67.5208 88.3483C68.2724 76.6875 47.2923 84.3091 47.9098 74.7205L47.3987 82.649C46.8163 91.6927 67.7105 85.3929 67.0098 96.2768L67.5208 88.3483Z" fill="#021D85"/>
<path id="Vector_9" d="M53.8792 104.241C50.5155 103.373 46.2093 101.131 46.4533 97.3306L45.9423 105.259C45.7381 108.431 48.8106 110.677 51.9364 111.816C53.8031 112.498 55.804 111.206 55.9309 109.222L56.0553 107.289C56.1471 105.885 55.2434 104.592 53.8792 104.241Z" fill="#021D85"/>
<path id="Vector_10" d="M61.0643 66.3993C64.4281 67.2669 68.7343 69.5094 68.4902 73.3093L69.0013 65.3808C69.2055 62.2091 66.1329 59.963 63.0072 58.8236C61.1404 58.1422 59.1396 59.4338 59.0127 61.4177L58.8882 63.3509C58.7964 64.7561 59.7002 66.0477 61.0643 66.3993Z" fill="#021D85"/>
</g>
<g id="Group_4">
<path id="Vector_11" d="M70.3402 51.3059C66.5197 62.3493 88.7696 60.572 85.6294 69.6508L88.2271 62.1415C91.1897 53.5762 69.3724 54.103 72.9379 43.7966L70.3402 51.3059Z" fill="#8BA2F9"/>
<path id="Vector_12" d="M77.8822 29.5007C74.0617 40.5441 96.3116 38.7656 93.1714 47.8456L95.7691 40.3363C98.7317 31.771 76.9144 32.2978 80.4799 21.9915L77.8822 29.5007Z" fill="#8BA2F9"/>
<path id="Vector_13" d="M93.4904 46.9285C89.67 57.9719 73.2752 42.8265 70.1338 51.9052L72.7315 44.396C75.6941 35.8307 92.5226 49.7256 96.0882 39.4192L93.4904 46.9285Z" fill="#5677F6"/>
<path id="Vector_14" d="M87.0601 26.996C83.6226 26.4945 78.7836 26.8957 77.5391 30.4938L80.1368 22.9846C81.1759 19.9809 84.878 19.0988 88.2019 19.2571C90.187 19.3514 91.5318 21.3172 90.8818 23.1948L90.2486 25.0253C89.7883 26.358 88.4544 27.2002 87.0601 26.996Z" fill="#5677F6"/>
<path id="Vector_15" d="M79.0426 64.6693C82.4801 65.1707 87.3191 64.7696 88.5636 61.1714L85.9659 68.6807C84.9268 71.6844 81.2247 72.5664 77.9008 72.4081C75.9157 72.3139 74.5709 70.348 75.2209 68.4704L75.8541 66.6399C76.3144 65.3072 77.6483 64.4651 79.0426 64.6693Z" fill="#5677F6"/>
</g>
<path id="Vector_16" d="M51.0134 7.65168L53.0759 9.39035C53.4178 9.67912 53.8793 9.78062 54.3107 9.66221L56.912 8.94813C57.9983 8.64969 58.9552 9.72745 58.5311 10.7702L57.515 13.2688C57.347 13.6833 57.3929 14.1545 57.6382 14.5278L59.1207 16.7812C59.7393 17.7224 59.0108 18.9645 57.8871 18.8836L55.1963 18.6902C54.7505 18.6576 54.3167 18.8473 54.0376 19.1965L52.3521 21.3025C51.6489 22.1821 50.2413 21.8728 49.9719 20.7793L49.3255 18.161C49.2179 17.7273 48.9038 17.3733 48.4857 17.215L45.9617 16.2629C44.9081 15.8654 44.7667 14.4324 45.7237 13.8367L48.0145 12.4122C48.3939 12.1766 48.6331 11.7682 48.6549 11.3211L48.7805 8.62674C48.8325 7.50186 50.1519 6.92552 51.0134 7.65168Z" fill="#011666"/>
<path id="Vector_17" d="M19.9648 66.6494L19.7449 69.3377C19.7086 69.7836 19.8935 70.2185 20.2402 70.5013L22.3305 72.2061C23.2029 72.9177 22.8803 74.3217 21.7844 74.5815L19.1601 75.2038C18.7251 75.3065 18.3687 75.617 18.2068 76.035L17.2305 78.5494C16.8233 79.5994 15.3879 79.7262 14.8031 78.7645L13.4003 76.4603C13.1684 76.0785 12.7624 75.8345 12.3153 75.8103L9.62215 75.6593C8.49727 75.5964 7.93302 74.271 8.66764 73.4168L10.4256 71.3712C10.7168 71.0317 10.8231 70.5713 10.7084 70.1388L10.0197 67.5302C9.7321 66.4415 10.8183 65.4955 11.8574 65.9292L14.3464 66.9695C14.7596 67.1423 15.2296 67.1 15.6066 66.8584L17.8745 65.3976C18.8205 64.7862 20.0566 65.5257 19.9648 66.6494Z" fill="#0334F2"/>
<path id="Vector_18" d="M101.867 4.28321L103.061 6.70212C103.259 7.10326 103.641 7.38115 104.084 7.44519L106.753 7.83305C107.868 7.99495 108.313 9.36511 107.506 10.1517L105.574 12.0341C105.254 12.3459 105.107 12.7965 105.182 13.2375L105.638 15.8957C105.829 17.0061 104.663 17.853 103.666 17.3287L101.278 16.0733C100.882 15.8655 100.41 15.8655 100.013 16.0733L97.6259 17.3287C96.6291 17.853 95.4631 17.0061 95.654 15.8957L96.1096 13.2375C96.1857 12.7965 96.0395 12.3471 95.7181 12.0341L93.7861 10.1517C92.979 9.36511 93.4248 7.99495 94.5388 7.83305L97.2079 7.44519C97.6501 7.38115 98.0331 7.10326 98.2312 6.70212L99.425 4.28321C99.9276 3.27311 101.368 3.27311 101.867 4.28321Z" fill="#8BA2F9"/>
<path id="Vector_19" d="M105.159 64.4312L106.353 66.8501C106.551 67.2512 106.933 67.5291 107.376 67.5931L110.045 67.981C111.16 68.1429 111.605 69.513 110.798 70.2996L108.866 72.1821C108.546 72.4938 108.399 72.9445 108.474 73.3855L108.93 76.0436C109.121 77.154 107.955 78.001 106.958 77.4766L104.57 76.2212C104.174 76.0134 103.702 76.0134 103.305 76.2212L100.918 77.4766C99.9211 78.001 98.7551 77.154 98.946 76.0436L99.4015 73.3855C99.4777 72.9445 99.3315 72.495 99.0101 72.1821L97.0781 70.2996C96.271 69.513 96.7168 68.1429 97.8308 67.981L100.5 67.5931C100.942 67.5291 101.325 67.2512 101.523 66.8501L102.717 64.4312C103.221 63.4211 104.661 63.4211 105.159 64.4312Z" fill="#5677F6"/>
<path id="Vector_20" d="M87.9643 86.2568L89.158 88.6758C89.3562 89.0769 89.738 89.3548 90.1814 89.4188L92.8505 89.8067C93.9657 89.9686 94.4103 91.3387 93.6032 92.1253L91.6712 94.0078C91.351 94.3195 91.2048 94.7702 91.2797 95.2112L91.7352 97.8693C91.9261 98.9797 90.7602 99.8267 89.7634 99.3023L87.3759 98.0469C86.9796 97.8391 86.5071 97.8391 86.1108 98.0469L83.7233 99.3023C82.7265 99.8267 81.5606 98.9797 81.7515 97.8693L82.207 95.2112C82.2831 94.7702 82.1369 94.3207 81.8167 94.0078L79.8847 92.1253C79.0776 91.3387 79.5235 89.9686 80.6375 89.8067L83.3065 89.4188C83.7487 89.3548 84.1317 89.0769 84.3299 88.6758L85.5236 86.2568C86.0251 85.2467 87.4653 85.2467 87.9643 86.2568Z" fill="#0334F2"/>
<path id="Vector_21" d="M36.8071 83.0574L38.0008 85.4763C38.199 85.8774 38.5808 86.1553 39.0242 86.2194L41.6932 86.6072C42.8084 86.7691 43.2531 88.1393 42.446 88.9258L40.514 90.8083C40.1938 91.12 40.0476 91.5707 40.1225 92.0117L40.578 94.6699C40.7689 95.7802 39.603 96.6272 38.6062 96.1028L36.2187 94.8475C35.8224 94.6396 35.3499 94.6396 34.9536 94.8475L32.5661 96.1028C31.5693 96.6272 30.4033 95.7802 30.5943 94.6699L31.0498 92.0117C31.1259 91.5707 30.9797 91.1212 30.6595 90.8083L28.7275 88.9258C27.9204 88.1393 28.3662 86.7691 29.4803 86.6072L32.1493 86.2194C32.5915 86.1553 32.9745 85.8774 33.1727 85.4763L34.3664 83.0574C34.8678 82.0473 36.3093 82.0473 36.8071 83.0574Z" fill="#021D85"/>
<path id="Vector_22" d="M11.0821 47.6038C11.0821 50.5048 8.72967 52.8573 5.82866 52.8573C2.92766 52.8573 0.575195 50.5048 0.575195 47.6038C0.575195 44.7028 2.92766 42.3503 5.82866 42.3503C8.72967 42.3503 11.0821 44.7016 11.0821 47.6038Z" fill="#021D85"/>
<path id="Vector_23" d="M113.17 30.4937C113.17 33.3947 110.818 35.7472 107.917 35.7472C105.016 35.7472 102.663 33.3947 102.663 30.4937C102.663 27.5927 105.016 25.2402 107.917 25.2402C110.818 25.2402 113.17 27.5927 113.17 30.4937Z" fill="#0334F2"/>
<path id="Vector_24" d="M20.0567 19.825C20.0567 22.726 17.7043 25.0785 14.8033 25.0785C11.9023 25.0785 9.5498 22.726 9.5498 19.825C9.5498 16.924 11.9023 14.5715 14.8033 14.5715C17.7043 14.5715 20.0567 16.924 20.0567 19.825Z" fill="#011666"/>
<path id="Vector_25" d="M78.4913 5.25347C78.4913 8.15447 76.1388 10.5069 73.2378 10.5069C70.3368 10.5069 67.9844 8.15447 67.9844 5.25347C67.9844 2.35246 70.3368 0 73.2378 0C76.1401 0 78.4913 2.35125 78.4913 5.25347Z" fill="#5677F6"/>
<path id="Vector_26" d="M118.425 51.9051C118.425 54.8061 116.072 57.1585 113.171 57.1585C110.27 57.1585 107.918 54.8061 107.918 51.9051C107.918 49.0041 110.27 46.6516 113.171 46.6516C116.074 46.6516 118.425 49.0041 118.425 51.9051Z" fill="#8BA2F9"/>
<path id="Vector_27" d="M66.5694 33.9373C66.5694 36.8383 64.217 39.1908 61.316 39.1908C58.415 39.1908 56.0625 36.8383 56.0625 33.9373C56.0625 31.0363 58.415 28.6838 61.316 28.6838C64.2182 28.6838 66.5694 31.0363 66.5694 33.9373Z" fill="#0334F2"/>
</g>
</svg>
