<svg width="117" height="22" viewBox="0 0 117 22" fill="none" xmlns="http://www.w3.org/2000/svg">
<path d="M4.09961 12.945V21.055H17.0996V12.945H4.09961ZM5.72961 19.435V14.535H15.4296V19.405L5.72961 19.435Z" fill="#07DFFF"/>
<path d="M0.899414 0.945007V18.435H9.00943V0.945007H0.899414ZM2.51942 16.805V2.56501H7.38942V16.805H2.51942Z" fill="#0334F2"/>
<path d="M9.00986 12.945L7.35796 13.024L7.35783 14.6744L9.11655 14.5274L9.00986 12.945Z" fill="#07DFFF"/>
<path d="M24.5556 2.50507V2.38007H24.4306H22.6006H22.4756V2.50507V16.0051V16.1301H22.6006H23.8506H24.4306H31.0806H31.2056V16.0051V14.3351V14.2101H31.0806H24.5556V2.50507Z" fill="white" stroke="white" stroke-width="0.25"/>
<path d="M36.0249 6.76508V6.64008H35.8999H34.1299H34.0049V6.76508V16.0051V16.1301H34.1299H35.8999H36.0249V16.0051V6.76508Z" fill="white" stroke="white" stroke-width="0.25"/>
<path d="M35.0287 2.55989C34.8663 2.55591 34.7048 2.58481 34.5538 2.64487C34.4014 2.70547 34.263 2.79653 34.1471 2.91247C34.0312 3.0284 33.9401 3.16678 33.8795 3.31913C33.8194 3.47025 33.7905 3.63197 33.7946 3.79454C33.7894 3.95751 33.8171 4.11985 33.876 4.27191C33.9352 4.42462 34.0246 4.56378 34.139 4.68104C34.2524 4.80369 34.3918 4.89954 34.547 4.9616C34.7002 5.02288 34.8649 5.0497 35.0296 5.04019C35.1943 5.0497 35.3591 5.02288 35.5123 4.9616C35.6674 4.89954 35.8068 4.80369 35.9203 4.68104C36.0346 4.56378 36.124 4.42462 36.1832 4.27191C36.2421 4.11989 36.2698 3.95758 36.2647 3.79465C36.2689 3.63334 36.2408 3.47281 36.1818 3.32257C36.1224 3.17128 36.0331 3.03356 35.9191 2.9177C35.8038 2.79831 35.6645 2.70471 35.5104 2.64306C35.3574 2.58188 35.1933 2.55355 35.0287 2.55989Z" fill="white" stroke="white" stroke-width="0.25"/>
<path d="M46.2084 6.99045L46.2084 6.99044L46.2069 6.98948C45.6314 6.62394 44.9609 6.43628 44.2794 6.44998C43.5987 6.44172 42.9273 6.60886 42.3299 6.9353L42.3298 6.93516L42.3244 6.9385C42.0002 7.13779 41.7102 7.38674 41.4648 7.67557V6.765V6.64H41.3398H39.5898H39.4648V6.765V16.005V16.13H39.5898H41.3398H41.4648V16.005L41.4649 10.615L41.4648 10.6137C41.4606 10.2024 41.5619 9.79684 41.759 9.43585C41.9517 9.09701 42.2324 8.81648 42.5713 8.62387C42.933 8.42153 43.3425 8.32002 43.7569 8.32996L43.7569 8.33016L43.7639 8.32993C44.0616 8.3202 44.3581 8.37229 44.6347 8.48291C44.9107 8.59332 45.1609 8.75964 45.3695 8.97142C45.7824 9.41572 46.0035 10.0049 45.9849 10.6112L45.9849 10.6112V10.615V16.005V16.13H46.1099H47.8799H48.0049V16.005V10.265V10.2647C48.0031 9.61343 47.836 8.97331 47.5192 8.40434C47.2039 7.83334 46.7539 7.34798 46.2084 6.99045Z" fill="white" stroke="white" stroke-width="0.25"/>
<path d="M59.4397 6.85149L59.6421 6.64006H59.3494H57.2094H57.1554L57.1184 6.67932L53.2344 10.8002V2.12506V2.00006H53.1094H51.3594H51.2344V2.12506V16.0051V16.1301H51.3594H53.1094H53.2344V16.0051V11.7675L57.177 16.0893L57.2142 16.1301H57.2694H59.5194H59.8044L59.6113 15.9204L55.2708 11.2067L59.4397 6.85149Z" fill="white" stroke="white" stroke-width="0.25"/>
<path d="M61.8008 2.9168L61.8008 2.91678L61.7989 2.91872C61.5738 3.15439 61.4501 3.46891 61.4543 3.79474C61.4484 4.12389 61.572 4.44222 61.7986 4.68109L61.7986 4.6811L61.7997 4.68223C61.9155 4.80115 62.0549 4.89445 62.2089 4.95607C62.361 5.0169 62.524 5.04553 62.6877 5.0402C62.8529 5.04998 63.0183 5.02319 63.172 4.9617C63.3271 4.89964 63.4665 4.8038 63.58 4.68115C63.6943 4.56388 63.7837 4.42472 63.8429 4.27201C63.9018 4.11995 63.9295 3.95761 63.9244 3.79465C63.9284 3.63208 63.8995 3.47036 63.8394 3.31923C63.7788 3.16688 63.6878 3.0285 63.5718 2.91257C63.4559 2.79663 63.3175 2.70557 63.1652 2.64497C63.0139 2.58478 62.8519 2.55589 62.6892 2.56002C62.5252 2.55624 62.3622 2.58569 62.2099 2.6466C62.0566 2.70793 61.9174 2.79986 61.8008 2.9168Z" fill="white" stroke="white" stroke-width="0.25"/>
<path d="M63.6948 6.76508V6.64008H63.5698H61.7998H61.6748V6.76508V16.0051V16.1301H61.7998H63.5698H63.6948V16.0051V6.76508Z" fill="white" stroke="white" stroke-width="0.25"/>
<path d="M74.6678 9.35673L74.6669 9.35597C74.2661 9.04746 73.8264 8.79321 73.3591 8.59981C72.8897 8.39866 72.4169 8.21759 71.9406 8.0566L71.9405 8.05657C71.5015 7.9086 71.0722 7.73354 70.6549 7.53242L70.6546 7.53227C70.3164 7.37039 70.0114 7.14686 69.7552 6.87315C69.5264 6.58668 69.4092 6.22692 69.4255 5.86056L69.4259 5.86058L69.4255 5.84992C69.4158 5.61322 69.4645 5.37778 69.5672 5.16433C69.6695 4.95162 69.8224 4.76724 70.0125 4.6273C70.4992 4.30049 71.0787 4.14 71.6642 4.16986L71.6642 4.17015L71.6728 4.17C72.2031 4.16079 72.7281 4.27631 73.2056 4.50725C73.6824 4.74451 74.1075 5.07407 74.4561 5.47682L74.5416 5.57558L74.6365 5.48586L75.9165 4.27586L76 4.19689L75.9283 4.10705C75.4575 3.51712 74.8574 3.0433 74.1744 2.72217C73.416 2.35622 72.5821 2.17391 71.7402 2.19001C70.9805 2.18007 70.2276 2.33343 69.5323 2.6397C68.8917 2.89416 68.3361 3.32458 67.9296 3.88131L67.9295 3.88122L67.9261 3.88639C67.5235 4.49924 67.324 5.22314 67.3555 5.95562C67.335 6.56658 67.4589 7.17378 67.7173 7.72785L67.717 7.72797L67.7211 7.73537C67.9717 8.18995 68.3274 8.57799 68.7584 8.86713C69.1621 9.16756 69.605 9.41123 70.0748 9.59134C70.5467 9.7821 71.0086 9.95277 71.4803 10.1134L71.4814 10.1137C71.9146 10.257 72.3368 10.4318 72.7445 10.6367L72.7444 10.6367L72.7475 10.6382C73.1149 10.8104 73.4403 11.0605 73.7013 11.3711C73.9352 11.7072 74.0527 12.1106 74.0357 12.5198L74.0356 12.5227C74.0307 12.7917 73.9565 13.0549 73.8203 13.2868C73.684 13.5188 73.4903 13.7117 73.2577 13.847L73.2577 13.8468L73.2525 13.8502C72.6991 14.2096 72.0461 14.3847 71.3871 14.3502L71.3872 14.3497L71.3764 14.3501C70.6837 14.3734 69.9965 14.2202 69.3794 13.9047C68.805 13.5858 68.3105 13.1408 67.9329 12.6032L67.8456 12.479L67.7405 12.5884L66.5105 13.8684L66.4361 13.9458L66.5014 14.0311C67.0495 14.7462 67.7456 15.3344 68.5422 15.7555L68.5421 15.7556L68.5461 15.7575C69.4062 16.1739 70.3538 16.3771 71.3089 16.3501C72.5353 16.4179 73.747 16.0556 74.7349 15.3256L74.735 15.3257L74.7405 15.3212C75.1637 14.9695 75.4992 14.5242 75.7205 14.0204C75.9411 13.5182 76.0421 12.9716 76.0157 12.4238C76.0335 11.7932 75.9065 11.1669 75.6443 10.5931L75.6441 10.5926C75.421 10.1092 75.0864 9.68568 74.6678 9.35673Z" fill="white" stroke="white" stroke-width="0.25"/>
<path d="M90.0129 6.72183L87.7709 12.8017L85.5576 6.72231L85.5277 6.64008H85.4402H84.4302H84.3428L84.3128 6.72215L82.0899 12.8017L79.8575 6.72199L79.8274 6.64008H79.7402H77.9102H77.7266L77.7939 6.81089L81.4339 16.0509L81.4651 16.1301H81.5502H82.5802H82.666L82.6968 16.05L84.9399 10.2236L87.1734 16.0498L87.2042 16.1301H87.2902H88.3202H88.4054L88.4365 16.0508L92.0665 6.81078L92.1336 6.64008H91.9502H90.1302H90.043L90.0129 6.72183Z" fill="white" stroke="white" stroke-width="0.25"/>
<path d="M100.216 15.8764C100.594 15.6864 100.932 15.4285 101.214 15.1165V16.055V16.18H101.339H103.109H103.234V16.055V6.76503V6.64003H103.109H101.339H101.214V6.76503V7.7085C100.928 7.39581 100.586 7.13652 100.206 6.94389C99.6092 6.63157 98.9426 6.47543 98.2688 6.49001C97.4334 6.47761 96.612 6.70636 95.9032 7.14887C95.2086 7.57886 94.6359 8.17987 94.2399 8.89444L94.2399 8.89443L94.2387 8.89665C93.8307 9.6691 93.6229 10.5315 93.6342 11.405C93.6229 12.2785 93.8307 13.141 94.2387 13.9134L94.2391 13.9142C94.6286 14.6395 95.2028 15.2492 95.9036 15.6814L95.9041 15.6817C96.6155 16.1163 97.4352 16.341 98.2688 16.33C98.9456 16.3437 99.615 16.1878 100.216 15.8764ZM98.5639 14.4201L98.5639 14.42L98.5578 14.42C98.0362 14.4262 97.5228 14.2905 97.0726 14.0273C96.6414 13.7729 96.2906 13.4022 96.0604 12.9577C95.8097 12.4693 95.6839 11.9263 95.6942 11.3774L95.6943 11.3774L95.6942 11.3729C95.6851 10.8305 95.8109 10.2943 96.0603 9.81249L96.0603 9.8125L96.0616 9.80989C96.275 9.37289 96.6049 9.00322 97.0148 8.74151C97.4601 8.47764 97.9698 8.34213 98.4873 8.35001L98.4873 8.35013L98.4928 8.34998C99.0064 8.33534 99.5135 8.46783 99.9543 8.73181C100.368 8.98775 100.699 9.35822 100.906 9.79833L100.906 9.79834L100.907 9.80088C101.154 10.2945 101.276 10.8407 101.264 11.3923L101.264 11.3923L101.265 11.4033C101.317 12.1896 101.066 12.966 100.565 13.5734C100.314 13.852 100.005 14.0722 99.6595 14.2185C99.3134 14.3652 98.9394 14.434 98.5639 14.4201Z" fill="white" stroke="white" stroke-width="0.25"/>
<path d="M115.63 8.89698L115.63 8.89648C115.245 8.16867 114.674 7.55551 113.976 7.11905C113.274 6.67738 112.459 6.44847 111.63 6.45995C110.957 6.45091 110.291 6.60669 109.693 6.91372L109.693 6.91371L109.691 6.9143C109.295 7.12238 108.941 7.39961 108.645 7.73195V6.76496V6.63996H108.52H106.77H106.645V6.76496V19.875V20H106.77H108.52H108.645V19.875V15.0631C108.934 15.3912 109.282 15.6637 109.672 15.8659L109.672 15.8662C110.278 16.1765 110.95 16.3324 111.63 16.32C112.457 16.3299 113.27 16.105 113.975 15.6715C114.676 15.2415 115.247 14.6306 115.63 13.9032L115.63 13.9029C116.035 13.1298 116.239 12.2674 116.225 11.3948C116.238 10.5257 116.033 9.66707 115.63 8.89698ZM111.382 14.43L111.382 14.4299L111.378 14.43C110.863 14.4366 110.357 14.301 109.914 14.0381C109.501 13.7813 109.171 13.411 108.962 12.9714L108.962 12.9714L108.962 12.9698C108.723 12.4842 108.604 11.9485 108.615 11.4075L108.615 11.4075L108.614 11.3995C108.591 10.8507 108.703 10.3044 108.942 9.80968C109.156 9.37333 109.486 9.00392 109.895 8.74145C110.337 8.48087 110.841 8.34344 111.355 8.34344C111.868 8.34344 112.372 8.48085 112.814 8.74139C113.223 9.00476 113.552 9.37419 113.767 9.81027L113.767 9.81029L113.769 9.81335C114.022 10.2929 114.148 10.8296 114.135 11.3718L114.134 11.3718L114.135 11.3804C114.158 11.9267 114.042 12.47 113.798 12.959L113.785 12.9854V12.9954C113.569 13.4204 113.244 13.7806 112.844 14.0388C112.403 14.3036 111.896 14.4391 111.382 14.43Z" fill="white" stroke="white" stroke-width="0.25"/>
</svg>
