<svg width="684" height="162" viewBox="0 0 684 162" fill="none" xmlns="http://www.w3.org/2000/svg">
<path d="M96.85 15.6257V10.5455H123.542V15.6257H113.202V44H107.19V15.6257H96.85ZM134.812 44.4901C132.362 44.4901 130.238 43.951 128.441 42.8729C126.644 41.7947 125.25 40.2865 124.259 38.348C123.279 36.4096 122.789 34.1444 122.789 31.5526C122.789 28.9607 123.279 26.6901 124.259 24.7408C125.25 22.7914 126.644 21.2777 128.441 20.1996C130.238 19.1214 132.362 18.5824 134.812 18.5824C137.262 18.5824 139.386 19.1214 141.183 20.1996C142.98 21.2777 144.368 22.7914 145.348 24.7408C146.339 26.6901 146.835 28.9607 146.835 31.5526C146.835 34.1444 146.339 36.4096 145.348 38.348C144.368 40.2865 142.98 41.7947 141.183 42.8729C139.386 43.951 137.262 44.4901 134.812 44.4901ZM134.845 39.7528C136.173 39.7528 137.284 39.388 138.177 38.6584C139.07 37.9179 139.734 36.9268 140.17 35.6854C140.616 34.4439 140.84 33.0608 140.84 31.5362C140.84 30.0007 140.616 28.6122 140.17 27.3707C139.734 26.1184 139.07 25.1219 138.177 24.3814C137.284 23.6409 136.173 23.2706 134.845 23.2706C133.483 23.2706 132.351 23.6409 131.447 24.3814C130.554 25.1219 129.884 26.1184 129.438 27.3707C129.002 28.6122 128.784 30.0007 128.784 31.5362C128.784 33.0608 129.002 34.4439 129.438 35.6854C129.884 36.9268 130.554 37.9179 131.447 38.6584C132.351 39.388 133.483 39.7528 134.845 39.7528ZM156.324 36.1264L156.308 28.9879H157.255L166.272 18.9091H173.182L162.091 31.2585H160.865L156.324 36.1264ZM150.934 44V10.5455H156.847V44H150.934ZM166.681 44L158.513 32.5817L162.499 28.4162L173.754 44H166.681ZM186.278 44.4901C183.762 44.4901 181.59 43.9673 179.76 42.9219C177.941 41.8655 176.542 40.3736 175.562 38.446C174.582 36.5076 174.092 34.2261 174.092 31.6016C174.092 29.0206 174.582 26.7554 175.562 24.8061C176.553 22.8459 177.936 21.3213 179.711 20.2322C181.486 19.1323 183.572 18.5824 185.967 18.5824C187.514 18.5824 188.973 18.8329 190.345 19.3338C191.728 19.8239 192.948 20.5862 194.004 21.6207C195.072 22.6553 195.91 23.973 196.52 25.5739C197.13 27.1638 197.435 29.0587 197.435 31.2585V33.0717H176.869V29.0859H191.766C191.756 27.9534 191.511 26.946 191.031 26.0639C190.552 25.1709 189.882 24.4685 189.022 23.9567C188.173 23.4448 187.182 23.1889 186.049 23.1889C184.84 23.1889 183.779 23.483 182.864 24.071C181.949 24.6482 181.236 25.4105 180.724 26.358C180.223 27.2945 179.967 28.3236 179.956 29.4453V32.9247C179.956 34.384 180.223 35.6364 180.757 36.6818C181.29 37.7164 182.036 38.5114 182.994 39.0668C183.953 39.6113 185.074 39.8835 186.36 39.8835C187.22 39.8835 187.998 39.7637 188.695 39.5241C189.392 39.2737 189.997 38.9089 190.509 38.4297C191.02 37.9505 191.407 37.357 191.668 36.6491L197.19 37.2699C196.841 38.7292 196.177 40.0033 195.197 41.0923C194.228 42.1705 192.986 43.009 191.472 43.608C189.959 44.196 188.227 44.4901 186.278 44.4901ZM207.431 29.2983V44H201.517V18.9091H207.169V23.1726H207.463C208.041 21.7678 208.961 20.6515 210.224 19.8239C211.498 18.9962 213.072 18.5824 214.945 18.5824C216.677 18.5824 218.185 18.9527 219.47 19.6932C220.766 20.4337 221.768 21.5064 222.476 22.9112C223.194 24.3161 223.548 26.0204 223.537 28.0241V44H217.624V28.9389C217.624 27.2618 217.188 25.9496 216.317 25.0021C215.457 24.0547 214.264 23.581 212.74 23.581C211.705 23.581 210.785 23.8097 209.979 24.267C209.184 24.7135 208.558 25.3615 208.101 26.2109C207.654 27.0604 207.431 28.0895 207.431 29.2983ZM228.629 44V18.9091H234.542V44H228.629ZM231.602 15.348C230.665 15.348 229.859 15.0376 229.184 14.4169C228.509 13.7853 228.171 13.0284 228.171 12.1463C228.171 11.2533 228.509 10.4964 229.184 9.87571C229.859 9.24408 230.665 8.92827 231.602 8.92827C232.549 8.92827 233.355 9.24408 234.019 9.87571C234.695 10.4964 235.032 11.2533 235.032 12.1463C235.032 13.0284 234.695 13.7853 234.019 14.4169C233.355 15.0376 232.549 15.348 231.602 15.348ZM239.376 44V40.2429L252.314 24.022V23.8097H239.801V18.9091H259.55V22.9439L247.233 38.8871V39.0994H259.975V44H239.376ZM275.002 44.4901C272.487 44.4901 270.314 43.9673 268.484 42.9219C266.666 41.8655 265.266 40.3736 264.286 38.446C263.306 36.5076 262.816 34.2261 262.816 31.6016C262.816 29.0206 263.306 26.7554 264.286 24.8061C265.277 22.8459 266.66 21.3213 268.435 20.2322C270.21 19.1323 272.296 18.5824 274.692 18.5824C276.238 18.5824 277.697 18.8329 279.07 19.3338C280.453 19.8239 281.672 20.5862 282.729 21.6207C283.796 22.6553 284.634 23.973 285.244 25.5739C285.854 27.1638 286.159 29.0587 286.159 31.2585V33.0717H265.593V29.0859H280.491C280.48 27.9534 280.235 26.946 279.756 26.0639C279.277 25.1709 278.607 24.4685 277.746 23.9567C276.897 23.4448 275.906 23.1889 274.773 23.1889C273.565 23.1889 272.503 23.483 271.588 24.071C270.673 24.6482 269.96 25.4105 269.448 26.358C268.947 27.2945 268.691 28.3236 268.68 29.4453V32.9247C268.68 34.384 268.947 35.6364 269.481 36.6818C270.014 37.7164 270.76 38.5114 271.719 39.0668C272.677 39.6113 273.799 39.8835 275.084 39.8835C275.944 39.8835 276.723 39.7637 277.42 39.5241C278.117 39.2737 278.721 38.9089 279.233 38.4297C279.745 37.9505 280.131 37.357 280.393 36.6491L285.914 37.2699C285.566 38.7292 284.901 40.0033 283.921 41.0923C282.952 42.1705 281.71 43.009 280.197 43.608C278.683 44.196 276.951 44.4901 275.002 44.4901ZM297.184 39.4261L296.972 41.223C296.819 42.5952 296.547 43.9891 296.155 45.4048C295.774 46.8314 295.371 48.1437 294.946 49.3416C294.522 50.5395 294.179 51.4815 293.917 52.1676H289.931C290.084 51.5033 290.291 50.5994 290.552 49.456C290.824 48.3125 291.086 47.0275 291.336 45.6009C291.587 44.1742 291.755 42.7259 291.843 41.2557L291.957 39.4261H297.184ZM311.136 15.6257V10.5455H337.828V15.6257H327.488V44H321.477V15.6257H311.136ZM339.187 44V18.9091H344.921V23.0909H345.182C345.639 21.6425 346.423 20.5263 347.534 19.7422C348.656 18.9472 349.935 18.5497 351.373 18.5497C351.7 18.5497 352.064 18.566 352.467 18.5987C352.881 18.6205 353.224 18.6586 353.497 18.7131V24.1527C353.246 24.0656 352.849 23.9893 352.304 23.924C351.77 23.8478 351.253 23.8097 350.752 23.8097C349.674 23.8097 348.705 24.0438 347.845 24.5121C346.995 24.9695 346.325 25.6065 345.835 26.4233C345.345 27.2401 345.1 28.1821 345.1 29.2493V44H339.187ZM363.276 44.5064C361.686 44.5064 360.254 44.2232 358.98 43.657C357.717 43.0798 356.715 42.2304 355.974 41.1087C355.245 39.987 354.88 38.6039 354.88 36.9595C354.88 35.5438 355.141 34.3731 355.664 33.4474C356.187 32.5218 356.9 31.7812 357.804 31.2259C358.708 30.6705 359.726 30.2512 360.858 29.968C362.002 29.674 363.183 29.4616 364.403 29.331C365.873 29.1785 367.066 29.0424 367.981 28.9226C368.895 28.7919 369.56 28.5959 369.973 28.3345C370.398 28.0623 370.611 27.643 370.611 27.0767V26.9787C370.611 25.7481 370.246 24.7952 369.516 24.12C368.786 23.4448 367.736 23.1072 366.363 23.1072C364.915 23.1072 363.766 23.4231 362.917 24.0547C362.078 24.6863 361.512 25.4323 361.218 26.2926L355.696 25.5085C356.132 23.9839 356.851 22.7098 357.853 21.6861C358.855 20.6515 360.08 19.8783 361.528 19.3665C362.977 18.8438 364.577 18.5824 366.331 18.5824C367.54 18.5824 368.743 18.724 369.941 19.0071C371.139 19.2902 372.233 19.7585 373.224 20.4119C374.215 21.0544 375.01 21.9311 375.609 23.0419C376.219 24.1527 376.524 25.5412 376.524 27.2074V44H370.839V40.5533H370.643C370.284 41.2502 369.777 41.9036 369.124 42.5135C368.482 43.1125 367.67 43.5971 366.69 43.9673C365.721 44.3267 364.583 44.5064 363.276 44.5064ZM364.812 40.1612C365.999 40.1612 367.028 39.9271 367.899 39.4588C368.77 38.9796 369.44 38.348 369.908 37.5639C370.387 36.7798 370.627 35.925 370.627 34.9993V32.0426C370.442 32.1951 370.126 32.3366 369.679 32.4673C369.244 32.598 368.754 32.7124 368.209 32.8104C367.665 32.9084 367.126 32.9955 366.592 33.0717C366.058 33.148 365.596 33.2133 365.204 33.2678C364.321 33.3875 363.532 33.5836 362.835 33.8558C362.138 34.1281 361.588 34.5092 361.185 34.9993C360.782 35.4785 360.581 36.0992 360.581 36.8615C360.581 37.9505 360.978 38.7727 361.773 39.3281C362.568 39.8835 363.581 40.1612 364.812 40.1612ZM387.463 29.2983V44H381.55V18.9091H387.202V23.1726H387.496C388.073 21.7678 388.993 20.6515 390.257 19.8239C391.531 18.9962 393.104 18.5824 394.978 18.5824C396.709 18.5824 398.217 18.9527 399.502 19.6932C400.798 20.4337 401.8 21.5064 402.508 22.9112C403.227 24.3161 403.581 26.0204 403.57 28.0241V44H397.656V28.9389C397.656 27.2618 397.221 25.9496 396.35 25.0021C395.489 24.0547 394.297 23.581 392.772 23.581C391.738 23.581 390.817 23.8097 390.012 24.267C389.217 24.7135 388.59 25.3615 388.133 26.2109C387.687 27.0604 387.463 28.0895 387.463 29.2983ZM428.492 25.5412L423.102 26.1293C422.949 25.5848 422.682 25.0729 422.301 24.5938C421.931 24.1146 421.43 23.728 420.798 23.4339C420.167 23.1399 419.393 22.9929 418.479 22.9929C417.248 22.9929 416.214 23.2597 415.375 23.7933C414.547 24.3269 414.139 25.0185 414.15 25.8679C414.139 26.5975 414.406 27.1911 414.95 27.6484C415.506 28.1058 416.42 28.4815 417.695 28.7756L421.974 29.6903C424.348 30.2022 426.113 31.0135 427.267 32.1243C428.432 33.2351 429.02 34.6889 429.031 36.4858C429.02 38.0649 428.558 39.4588 427.643 40.6676C426.739 41.8655 425.481 42.8021 423.869 43.4773C422.258 44.1525 420.406 44.4901 418.315 44.4901C415.244 44.4901 412.772 43.8475 410.899 42.5625C409.026 41.2666 407.91 39.4643 407.55 37.1555L413.317 36.6001C413.578 37.7327 414.134 38.5876 414.983 39.1648C415.832 39.742 416.938 40.0305 418.299 40.0305C419.704 40.0305 420.831 39.742 421.68 39.1648C422.541 38.5876 422.971 37.8743 422.971 37.0249C422.971 36.3061 422.693 35.7126 422.138 35.2443C421.593 34.776 420.744 34.4167 419.589 34.1662L415.31 33.2678C412.903 32.7668 411.122 31.9228 409.968 30.7358C408.814 29.5379 408.242 28.0241 408.253 26.1946C408.242 24.6482 408.661 23.3087 409.511 22.1761C410.371 21.0327 411.563 20.1506 413.088 19.5298C414.624 18.8982 416.393 18.5824 418.397 18.5824C421.337 18.5824 423.652 19.2086 425.339 20.4609C427.038 21.7133 428.089 23.4067 428.492 25.5412ZM445.696 18.9091V23.483H430.864V18.9091H445.696ZM434.572 44V16.5405C434.572 14.8525 434.92 13.4477 435.617 12.326C436.325 11.2043 437.273 10.3658 438.46 9.81037C439.647 9.25497 440.964 8.97727 442.413 8.97727C443.436 8.97727 444.346 9.05895 445.141 9.2223C445.936 9.38565 446.524 9.53267 446.905 9.66335L445.729 14.2372C445.478 14.161 445.163 14.0848 444.781 14.0085C444.4 13.9214 443.975 13.8778 443.507 13.8778C442.407 13.8778 441.629 14.1446 441.171 14.6783C440.725 15.201 440.502 15.9524 440.502 16.9325V44H434.572ZM459.572 44.4901C457.056 44.4901 454.884 43.9673 453.054 42.9219C451.235 41.8655 449.836 40.3736 448.856 38.446C447.876 36.5076 447.386 34.2261 447.386 31.6016C447.386 29.0206 447.876 26.7554 448.856 24.8061C449.847 22.8459 451.23 21.3213 453.005 20.2322C454.78 19.1323 456.866 18.5824 459.261 18.5824C460.808 18.5824 462.267 18.8329 463.639 19.3338C465.022 19.8239 466.242 20.5862 467.298 21.6207C468.366 22.6553 469.204 23.973 469.814 25.5739C470.424 27.1638 470.729 29.0587 470.729 31.2585V33.0717H450.163V29.0859H465.06C465.049 27.9534 464.804 26.946 464.325 26.0639C463.846 25.1709 463.176 24.4685 462.316 23.9567C461.467 23.4448 460.476 23.1889 459.343 23.1889C458.134 23.1889 457.072 23.483 456.158 24.071C455.243 24.6482 454.53 25.4105 454.018 26.358C453.517 27.2945 453.261 28.3236 453.25 29.4453V32.9247C453.25 34.384 453.517 35.6364 454.05 36.6818C454.584 37.7164 455.33 38.5114 456.288 39.0668C457.247 39.6113 458.368 39.8835 459.653 39.8835C460.514 39.8835 461.292 39.7637 461.989 39.5241C462.686 39.2737 463.291 38.9089 463.803 38.4297C464.314 37.9505 464.701 37.357 464.962 36.6491L470.484 37.2699C470.135 38.7292 469.471 40.0033 468.491 41.0923C467.522 42.1705 466.28 43.009 464.766 43.608C463.253 44.196 461.521 44.4901 459.572 44.4901ZM474.811 44V18.9091H480.545V23.0909H480.806C481.264 21.6425 482.048 20.5263 483.159 19.7422C484.28 18.9472 485.56 18.5497 486.997 18.5497C487.324 18.5497 487.689 18.566 488.092 18.5987C488.506 18.6205 488.849 18.6586 489.121 18.7131V24.1527C488.871 24.0656 488.473 23.9893 487.929 23.924C487.395 23.8478 486.878 23.8097 486.377 23.8097C485.299 23.8097 484.329 24.0438 483.469 24.5121C482.62 24.9695 481.95 25.6065 481.46 26.4233C480.97 27.2401 480.725 28.1821 480.725 29.2493V44H474.811ZM496.197 39.4261L495.985 41.223C495.832 42.5952 495.56 43.9891 495.168 45.4048C494.787 46.8314 494.384 48.1437 493.959 49.3416C493.534 50.5395 493.191 51.4815 492.93 52.1676H488.944C489.097 51.5033 489.304 50.5994 489.565 49.456C489.837 48.3125 490.099 47.0275 490.349 45.6009C490.6 44.1742 490.768 42.7259 490.856 41.2557L490.97 39.4261H496.197ZM518.578 44.5064C516.988 44.5064 515.556 44.2232 514.282 43.657C513.019 43.0798 512.017 42.2304 511.276 41.1087C510.547 39.987 510.182 38.6039 510.182 36.9595C510.182 35.5438 510.443 34.3731 510.966 33.4474C511.489 32.5218 512.202 31.7812 513.106 31.2259C514.01 30.6705 515.028 30.2512 516.161 29.968C517.304 29.674 518.486 29.4616 519.705 29.331C521.175 29.1785 522.368 29.0424 523.283 28.9226C524.197 28.7919 524.862 28.5959 525.276 28.3345C525.7 28.0623 525.913 27.643 525.913 27.0767V26.9787C525.913 25.7481 525.548 24.7952 524.818 24.12C524.089 23.4448 523.038 23.1072 521.666 23.1072C520.217 23.1072 519.068 23.4231 518.219 24.0547C517.38 24.6863 516.814 25.4323 516.52 26.2926L510.999 25.5085C511.434 23.9839 512.153 22.7098 513.155 21.6861C514.157 20.6515 515.382 19.8783 516.83 19.3665C518.279 18.8438 519.88 18.5824 521.633 18.5824C522.842 18.5824 524.045 18.724 525.243 19.0071C526.441 19.2902 527.535 19.7585 528.526 20.4119C529.517 21.0544 530.312 21.9311 530.911 23.0419C531.521 24.1527 531.826 25.5412 531.826 27.2074V44H526.141V40.5533H525.945C525.586 41.2502 525.08 41.9036 524.426 42.5135C523.784 43.1125 522.972 43.5971 521.992 43.9673C521.023 44.3267 519.885 44.5064 518.578 44.5064ZM520.114 40.1612C521.301 40.1612 522.33 39.9271 523.201 39.4588C524.072 38.9796 524.742 38.348 525.21 37.5639C525.689 36.7798 525.929 35.925 525.929 34.9993V32.0426C525.744 32.1951 525.428 32.3366 524.982 32.4673C524.546 32.598 524.056 32.7124 523.511 32.8104C522.967 32.9084 522.428 32.9955 521.894 33.0717C521.361 33.148 520.898 33.2133 520.506 33.2678C519.624 33.3875 518.834 33.5836 518.137 33.8558C517.44 34.1281 516.89 34.5092 516.487 34.9993C516.084 35.4785 515.883 36.0992 515.883 36.8615C515.883 37.9505 516.28 38.7727 517.075 39.3281C517.87 39.8835 518.883 40.1612 520.114 40.1612ZM542.765 29.2983V44H536.852V18.9091H542.504V23.1726H542.798C543.375 21.7678 544.295 20.6515 545.559 19.8239C546.833 18.9962 548.407 18.5824 550.28 18.5824C552.011 18.5824 553.519 18.9527 554.804 19.6932C556.1 20.4337 557.102 21.5064 557.81 22.9112C558.529 24.3161 558.883 26.0204 558.872 28.0241V44H552.959V28.9389C552.959 27.2618 552.523 25.9496 551.652 25.0021C550.791 24.0547 549.599 23.581 548.074 23.581C547.04 23.581 546.12 23.8097 545.314 24.267C544.519 24.7135 543.893 25.3615 543.435 26.2109C542.989 27.0604 542.765 28.0895 542.765 29.2983ZM573.274 44.4411C571.303 44.4411 569.539 43.9347 567.982 42.9219C566.425 41.9091 565.194 40.4389 564.29 38.5114C563.386 36.5838 562.934 34.2424 562.934 31.4872C562.934 28.6993 563.392 26.3471 564.306 24.4304C565.232 22.5028 566.479 21.049 568.047 20.0689C569.615 19.0779 571.363 18.5824 573.291 18.5824C574.761 18.5824 575.97 18.8329 576.917 19.3338C577.865 19.8239 578.616 20.4174 579.171 21.1143C579.727 21.8004 580.157 22.4484 580.462 23.0582H580.707V10.5455H586.637V44H580.821V40.0469H580.462C580.157 40.6567 579.716 41.3047 579.139 41.9908C578.562 42.666 577.799 43.2431 576.852 43.7223C575.904 44.2015 574.712 44.4411 573.274 44.4411ZM574.924 39.5895C576.177 39.5895 577.244 39.2519 578.126 38.5767C579.008 37.8906 579.678 36.9377 580.135 35.718C580.593 34.4983 580.821 33.0772 580.821 31.4545C580.821 29.8319 580.593 28.4216 580.135 27.2237C579.689 26.0258 579.024 25.0947 578.142 24.4304C577.271 23.7661 576.198 23.4339 574.924 23.4339C573.607 23.4339 572.507 23.777 571.625 24.4631C570.742 25.1491 570.078 26.0966 569.632 27.3054C569.185 28.5142 568.962 29.8973 568.962 31.4545C568.962 33.0227 569.185 34.4221 569.632 35.6527C570.089 36.8724 570.759 37.8362 571.641 38.544C572.534 39.241 573.628 39.5895 574.924 39.5895ZM20.1773 69.6257V64.5455H46.8691V69.6257H36.5289V98H30.5175V69.6257H20.1773ZM48.2279 98V72.9091H53.9615V77.0909H54.2229C54.6803 75.6425 55.4644 74.5263 56.5752 73.7422C57.6968 72.9472 58.9764 72.5497 60.4139 72.5497C60.7406 72.5497 61.1055 72.566 61.5084 72.5987C61.9222 72.6205 62.2653 72.6586 62.5375 72.7131V78.1527C62.287 78.0656 61.8895 77.9893 61.345 77.924C60.8114 77.8478 60.2941 77.8097 59.7932 77.8097C58.7151 77.8097 57.7458 78.0438 56.8855 78.5121C56.0361 78.9695 55.3663 79.6065 54.8763 80.4233C54.3862 81.2401 54.1412 82.1821 54.1412 83.2493V98H48.2279ZM72.3171 98.5064C70.7271 98.5064 69.2951 98.2232 68.0209 97.657C66.7577 97.0798 65.7558 96.2304 65.0152 95.1087C64.2856 93.987 63.9208 92.6039 63.9208 90.9595C63.9208 89.5438 64.1821 88.3731 64.7049 87.4474C65.2276 86.5218 65.9409 85.7812 66.8448 85.2259C67.7487 84.6705 68.7669 84.2512 69.8995 83.968C71.0429 83.674 72.2245 83.4616 73.4442 83.331C74.9144 83.1785 76.1069 83.0424 77.0216 82.9226C77.9364 82.7919 78.6007 82.5959 79.0145 82.3345C79.4392 82.0623 79.6516 81.643 79.6516 81.0767V80.9787C79.6516 79.7481 79.2868 78.7952 78.5571 78.12C77.8275 77.4448 76.7766 77.1072 75.4044 77.1072C73.9561 77.1072 72.8071 77.4231 71.9577 78.0547C71.1192 78.6863 70.5529 79.4323 70.2588 80.2926L64.7375 79.5085C65.1731 77.9839 65.8919 76.7098 66.8938 75.6861C67.8957 74.6515 69.1208 73.8783 70.5692 73.3665C72.0176 72.8438 73.6185 72.5824 75.3718 72.5824C76.5806 72.5824 77.7839 72.724 78.9819 73.0071C80.1798 73.2902 81.2742 73.7585 82.2652 74.4119C83.2562 75.0544 84.0512 75.9311 84.6502 77.0419C85.26 78.1527 85.565 79.5412 85.565 81.2074V98H79.8803V94.5533H79.6843C79.3249 95.2502 78.8185 95.9036 78.1651 96.5135C77.5226 97.1125 76.7113 97.5971 75.7311 97.9673C74.7619 98.3267 73.6239 98.5064 72.3171 98.5064ZM73.8526 94.1612C75.0396 94.1612 76.0687 93.9271 76.94 93.4588C77.8112 92.9796 78.4809 92.348 78.9492 91.5639C79.4284 90.7798 79.6679 89.925 79.6679 88.9993V86.0426C79.4828 86.1951 79.167 86.3366 78.7205 86.4673C78.2849 86.598 77.7948 86.7124 77.2503 86.8104C76.7058 86.9084 76.1668 86.9955 75.6331 87.0717C75.0995 87.148 74.6367 87.2133 74.2446 87.2678C73.3625 87.3875 72.573 87.5836 71.876 87.8558C71.1791 88.1281 70.6291 88.5092 70.2262 88.9993C69.8232 89.4785 69.6218 90.0992 69.6218 90.8615C69.6218 91.9505 70.0193 92.7727 70.8142 93.3281C71.6092 93.8835 72.622 94.1612 73.8526 94.1612ZM96.5043 83.2983V98H90.591V72.9091H96.243V77.1726H96.537C97.1142 75.7678 98.0344 74.6515 99.2976 73.8239C100.572 72.9962 102.145 72.5824 104.019 72.5824C105.75 72.5824 107.258 72.9527 108.543 73.6932C109.839 74.4337 110.841 75.5064 111.549 76.9112C112.268 78.3161 112.622 80.0204 112.611 82.0241V98H106.698V82.9389C106.698 81.2618 106.262 79.9496 105.391 79.0021C104.53 78.0547 103.338 77.581 101.813 77.581C100.779 77.581 99.8585 77.8097 99.0526 78.267C98.2576 78.7135 97.6315 79.3615 97.1741 80.2109C96.7276 81.0604 96.5043 82.0895 96.5043 83.2983ZM137.533 79.5412L132.143 80.1293C131.99 79.5848 131.723 79.0729 131.342 78.5938C130.972 78.1146 130.471 77.728 129.839 77.4339C129.208 77.1399 128.434 76.9929 127.52 76.9929C126.289 76.9929 125.255 77.2597 124.416 77.7933C123.588 78.3269 123.18 79.0185 123.191 79.8679C123.18 80.5975 123.447 81.1911 123.991 81.6484C124.547 82.1058 125.461 82.4815 126.736 82.7756L131.015 83.6903C133.389 84.2022 135.154 85.0135 136.308 86.1243C137.473 87.2351 138.061 88.6889 138.072 90.4858C138.061 92.0649 137.599 93.4588 136.684 94.6676C135.78 95.8655 134.522 96.8021 132.91 97.4773C131.299 98.1525 129.447 98.4901 127.356 98.4901C124.285 98.4901 121.813 97.8475 119.94 96.5625C118.067 95.2666 116.951 93.4643 116.591 91.1555L122.358 90.6001C122.619 91.7327 123.175 92.5876 124.024 93.1648C124.873 93.742 125.979 94.0305 127.34 94.0305C128.745 94.0305 129.872 93.742 130.721 93.1648C131.582 92.5876 132.012 91.8743 132.012 91.0249C132.012 90.3061 131.734 89.7126 131.179 89.2443C130.634 88.776 129.785 88.4167 128.63 88.1662L124.351 87.2678C121.944 86.7668 120.163 85.9228 119.009 84.7358C117.855 83.5379 117.283 82.0241 117.294 80.1946C117.283 78.6482 117.702 77.3087 118.552 76.1761C119.412 75.0327 120.604 74.1506 122.129 73.5298C123.665 72.8982 125.434 72.5824 127.438 72.5824C130.378 72.5824 132.693 73.2086 134.38 74.4609C136.079 75.7133 137.13 77.4067 137.533 79.5412ZM154.737 72.9091V77.483H139.905V72.9091H154.737ZM143.613 98V70.5405C143.613 68.8525 143.961 67.4477 144.658 66.326C145.366 65.2043 146.314 64.3658 147.501 63.8104C148.688 63.255 150.005 62.9773 151.454 62.9773C152.477 62.9773 153.387 63.0589 154.182 63.2223C154.977 63.3857 155.565 63.5327 155.946 63.6634L154.77 68.2372C154.519 68.161 154.204 68.0848 153.822 68.0085C153.441 67.9214 153.016 67.8778 152.548 67.8778C151.448 67.8778 150.67 68.1446 150.212 68.6783C149.766 69.201 149.543 69.9524 149.543 70.9325V98H143.613ZM168.449 98.4901C165.999 98.4901 163.876 97.951 162.079 96.8729C160.282 95.7947 158.888 94.2865 157.897 92.348C156.917 90.4096 156.427 88.1444 156.427 85.5526C156.427 82.9607 156.917 80.6901 157.897 78.7408C158.888 76.7914 160.282 75.2777 162.079 74.1996C163.876 73.1214 165.999 72.5824 168.449 72.5824C170.9 72.5824 173.023 73.1214 174.82 74.1996C176.617 75.2777 178.006 76.7914 178.986 78.7408C179.977 80.6901 180.472 82.9607 180.472 85.5526C180.472 88.1444 179.977 90.4096 178.986 92.348C178.006 94.2865 176.617 95.7947 174.82 96.8729C173.023 97.951 170.9 98.4901 168.449 98.4901ZM168.482 93.7528C169.811 93.7528 170.921 93.388 171.814 92.6584C172.707 91.9179 173.372 90.9268 173.807 89.6854C174.254 88.4439 174.477 87.0608 174.477 85.5362C174.477 84.0007 174.254 82.6122 173.807 81.3707C173.372 80.1184 172.707 79.1219 171.814 78.3814C170.921 77.6409 169.811 77.2706 168.482 77.2706C167.121 77.2706 165.988 77.6409 165.084 78.3814C164.191 79.1219 163.522 80.1184 163.075 81.3707C162.64 82.6122 162.422 84.0007 162.422 85.5362C162.422 87.0608 162.64 88.4439 163.075 89.6854C163.522 90.9268 164.191 91.9179 165.084 92.6584C165.988 93.388 167.121 93.7528 168.482 93.7528ZM184.571 98V72.9091H190.305V77.0909H190.566C191.024 75.6425 191.808 74.5263 192.918 73.7422C194.04 72.9472 195.32 72.5497 196.757 72.5497C197.084 72.5497 197.449 72.566 197.852 72.5987C198.265 72.6205 198.609 72.6586 198.881 72.7131V78.1527C198.63 78.0656 198.233 77.9893 197.688 77.924C197.155 77.8478 196.637 77.8097 196.136 77.8097C195.058 77.8097 194.089 78.0438 193.229 78.5121C192.379 78.9695 191.71 79.6065 191.22 80.4233C190.73 81.2401 190.484 82.1821 190.484 83.2493V98H184.571ZM201.889 98V72.9091H207.541V77.1726H207.835C208.358 75.7351 209.224 74.6134 210.433 73.8075C211.642 72.9908 213.084 72.5824 214.762 72.5824C216.46 72.5824 217.892 72.9962 219.058 73.8239C220.234 74.6406 221.062 75.7569 221.541 77.1726H221.802C222.357 75.7786 223.294 74.6679 224.612 73.8402C225.94 73.0017 227.514 72.5824 229.333 72.5824C231.641 72.5824 233.525 73.312 234.985 74.7713C236.444 76.2306 237.174 78.3596 237.174 81.1584V98H231.244V82.0732C231.244 80.5159 230.83 79.3778 230.002 78.6591C229.175 77.9294 228.162 77.5646 226.964 77.5646C225.537 77.5646 224.421 78.0111 223.615 78.9041C222.82 79.7862 222.423 80.9351 222.423 82.3509V98H216.624V81.8281C216.624 80.5322 216.232 79.4976 215.448 78.7244C214.674 77.9512 213.662 77.5646 212.409 77.5646C211.56 77.5646 210.787 77.7824 210.09 78.218C209.393 78.6428 208.837 79.2472 208.424 80.0312C208.01 80.8045 207.803 81.7083 207.803 82.7429V98H201.889ZM250.717 64.5455H257.562L265.746 79.3452H266.072L274.256 64.5455H281.101L268.931 85.5199V98H262.887V85.5199L250.717 64.5455ZM290.484 98.4901C288.034 98.4901 285.91 97.951 284.113 96.8729C282.317 95.7947 280.923 94.2865 279.932 92.348C278.952 90.4096 278.461 88.1444 278.461 85.5526C278.461 82.9607 278.952 80.6901 279.932 78.7408C280.923 76.7914 282.317 75.2777 284.113 74.1996C285.91 73.1214 288.034 72.5824 290.484 72.5824C292.934 72.5824 295.058 73.1214 296.855 74.1996C298.652 75.2777 300.04 76.7914 301.02 78.7408C302.011 80.6901 302.507 82.9607 302.507 85.5526C302.507 88.1444 302.011 90.4096 301.02 92.348C300.04 94.2865 298.652 95.7947 296.855 96.8729C295.058 97.951 292.934 98.4901 290.484 98.4901ZM290.517 93.7528C291.845 93.7528 292.956 93.388 293.849 92.6584C294.742 91.9179 295.407 90.9268 295.842 89.6854C296.289 88.4439 296.512 87.0608 296.512 85.5362C296.512 84.0007 296.289 82.6122 295.842 81.3707C295.407 80.1184 294.742 79.1219 293.849 78.3814C292.956 77.6409 291.845 77.2706 290.517 77.2706C289.156 77.2706 288.023 77.6409 287.119 78.3814C286.226 79.1219 285.556 80.1184 285.11 81.3707C284.674 82.6122 284.456 84.0007 284.456 85.5362C284.456 87.0608 284.674 88.4439 285.11 89.6854C285.556 90.9268 286.226 91.9179 287.119 92.6584C288.023 93.388 289.156 93.7528 290.517 93.7528ZM322.598 87.4474V72.9091H328.511V98H322.778V93.5405H322.516C321.95 94.9453 321.019 96.0942 319.723 96.9872C318.438 97.8802 316.854 98.3267 314.97 98.3267C313.325 98.3267 311.871 97.9619 310.608 97.2322C309.356 96.4917 308.376 95.419 307.668 94.0142C306.96 92.5985 306.606 90.8887 306.606 88.8849V72.9091H312.519V87.9702C312.519 89.5601 312.955 90.8234 313.826 91.7599C314.697 92.6965 315.841 93.1648 317.256 93.1648C318.128 93.1648 318.972 92.9524 319.788 92.5277C320.605 92.103 321.275 91.4714 321.798 90.6328C322.331 89.7834 322.598 88.7216 322.598 87.4474ZM333.672 98V72.9091H339.406V77.0909H339.667C340.125 75.6425 340.909 74.5263 342.02 73.7422C343.141 72.9472 344.421 72.5497 345.858 72.5497C346.185 72.5497 346.55 72.566 346.953 72.5987C347.367 72.6205 347.71 72.6586 347.982 72.7131V78.1527C347.731 78.0656 347.334 77.9893 346.789 77.924C346.256 77.8478 345.739 77.8097 345.238 77.8097C344.159 77.8097 343.19 78.0438 342.33 78.5121C341.48 78.9695 340.811 79.6065 340.321 80.4233C339.831 81.2401 339.586 82.1821 339.586 83.2493V98H333.672ZM366.038 98H359.569L371.347 64.5455H378.829L390.623 98H384.154L375.219 71.4062H374.957L366.038 98ZM366.251 84.8828H383.893V89.7507H366.251V84.8828ZM413.274 79.5412L407.884 80.1293C407.731 79.5848 407.465 79.0729 407.083 78.5938C406.713 78.1146 406.212 77.728 405.581 77.4339C404.949 77.1399 404.176 76.9929 403.261 76.9929C402.03 76.9929 400.996 77.2597 400.157 77.7933C399.33 78.3269 398.921 79.0185 398.932 79.8679C398.921 80.5975 399.188 81.1911 399.733 81.6484C400.288 82.1058 401.203 82.4815 402.477 82.7756L406.757 83.6903C409.131 84.2022 410.895 85.0135 412.049 86.1243C413.215 87.2351 413.803 88.6889 413.814 90.4858C413.803 92.0649 413.34 93.4588 412.425 94.6676C411.521 95.8655 410.263 96.8021 408.652 97.4773C407.04 98.1525 405.189 98.4901 403.098 98.4901C400.027 98.4901 397.555 97.8475 395.681 96.5625C393.808 95.2666 392.692 93.4643 392.333 91.1555L398.099 90.6001C398.36 91.7327 398.916 92.5876 399.765 93.1648C400.615 93.742 401.72 94.0305 403.081 94.0305C404.486 94.0305 405.613 93.742 406.463 93.1648C407.323 92.5876 407.753 91.8743 407.753 91.0249C407.753 90.3061 407.475 89.7126 406.92 89.2443C406.376 88.776 405.526 88.4167 404.372 88.1662L400.092 87.2678C397.685 86.7668 395.905 85.9228 394.75 84.7358C393.596 83.5379 393.024 82.0241 393.035 80.1946C393.024 78.6482 393.443 77.3087 394.293 76.1761C395.153 75.0327 396.346 74.1506 397.87 73.5298C399.406 72.8982 401.175 72.5824 403.179 72.5824C406.12 72.5824 408.434 73.2086 410.122 74.4609C411.821 75.7133 412.872 77.4067 413.274 79.5412ZM437.601 79.5412L432.21 80.1293C432.057 79.5848 431.791 79.0729 431.409 78.5938C431.039 78.1146 430.538 77.728 429.907 77.4339C429.275 77.1399 428.502 76.9929 427.587 76.9929C426.356 76.9929 425.322 77.2597 424.483 77.7933C423.656 78.3269 423.247 79.0185 423.258 79.8679C423.247 80.5975 423.514 81.1911 424.059 81.6484C424.614 82.1058 425.529 82.4815 426.803 82.7756L431.083 83.6903C433.457 84.2022 435.221 85.0135 436.375 86.1243C437.541 87.2351 438.129 88.6889 438.14 90.4858C438.129 92.0649 437.666 93.4588 436.751 94.6676C435.847 95.8655 434.589 96.8021 432.978 97.4773C431.366 98.1525 429.515 98.4901 427.424 98.4901C424.353 98.4901 421.881 97.8475 420.007 96.5625C418.134 95.2666 417.018 93.4643 416.659 91.1555L422.425 90.6001C422.686 91.7327 423.242 92.5876 424.091 93.1648C424.941 93.742 426.046 94.0305 427.407 94.0305C428.812 94.0305 429.939 93.742 430.789 93.1648C431.649 92.5876 432.079 91.8743 432.079 91.0249C432.079 90.3061 431.802 89.7126 431.246 89.2443C430.702 88.776 429.852 88.4167 428.698 88.1662L424.418 87.2678C422.011 86.7668 420.231 85.9228 419.076 84.7358C417.922 83.5379 417.35 82.0241 417.361 80.1946C417.35 78.6482 417.77 77.3087 418.619 76.1761C419.479 75.0327 420.672 74.1506 422.196 73.5298C423.732 72.8982 425.502 72.5824 427.505 72.5824C430.446 72.5824 432.76 73.2086 434.448 74.4609C436.147 75.7133 437.198 77.4067 437.601 79.5412ZM453.204 98.4901C450.688 98.4901 448.515 97.9673 446.686 96.9219C444.867 95.8655 443.468 94.3736 442.488 92.446C441.508 90.5076 441.018 88.2261 441.018 85.6016C441.018 83.0206 441.508 80.7554 442.488 78.8061C443.479 76.8459 444.862 75.3213 446.637 74.2322C448.412 73.1323 450.497 72.5824 452.893 72.5824C454.44 72.5824 455.899 72.8329 457.271 73.3338C458.654 73.8239 459.874 74.5862 460.93 75.6207C461.997 76.6553 462.836 77.973 463.446 79.5739C464.056 81.1638 464.361 83.0587 464.361 85.2585V87.0717H443.795V83.0859H458.692C458.681 81.9534 458.436 80.946 457.957 80.0639C457.478 79.1709 456.808 78.4685 455.948 77.9567C455.099 77.4448 454.108 77.1889 452.975 77.1889C451.766 77.1889 450.704 77.483 449.79 78.071C448.875 78.6482 448.161 79.4105 447.65 80.358C447.149 81.2945 446.893 82.3236 446.882 83.4453V86.9247C446.882 88.384 447.149 89.6364 447.682 90.6818C448.216 91.7164 448.962 92.5114 449.92 93.0668C450.879 93.6113 452 93.8835 453.285 93.8835C454.146 93.8835 454.924 93.7637 455.621 93.5241C456.318 93.2737 456.923 92.9089 457.434 92.4297C457.946 91.9505 458.333 91.357 458.594 90.6491L464.116 91.2699C463.767 92.7292 463.103 94.0033 462.123 95.0923C461.153 96.1705 459.912 97.009 458.398 97.608C456.884 98.196 455.153 98.4901 453.204 98.4901ZM480.972 72.9091V77.483H466.548V72.9091H480.972ZM470.109 66.8977H476.023V90.4531C476.023 91.2481 476.143 91.858 476.382 92.2827C476.633 92.6965 476.959 92.9796 477.362 93.1321C477.765 93.2846 478.212 93.3608 478.702 93.3608C479.072 93.3608 479.41 93.3336 479.715 93.2791C480.03 93.2247 480.27 93.1757 480.433 93.1321L481.43 97.755C481.114 97.8639 480.662 97.9837 480.074 98.1143C479.497 98.245 478.789 98.3213 477.95 98.343C476.469 98.3866 475.135 98.1634 473.948 97.6733C472.761 97.1723 471.819 96.3991 471.122 95.3537C470.436 94.3082 470.099 93.0014 470.109 91.4332V66.8977ZM504.469 79.5412L499.079 80.1293C498.926 79.5848 498.66 79.0729 498.278 78.5938C497.908 78.1146 497.407 77.728 496.776 77.4339C496.144 77.1399 495.371 76.9929 494.456 76.9929C493.225 76.9929 492.191 77.2597 491.352 77.7933C490.525 78.3269 490.116 79.0185 490.127 79.8679C490.116 80.5975 490.383 81.1911 490.928 81.6484C491.483 82.1058 492.398 82.4815 493.672 82.7756L497.952 83.6903C500.326 84.2022 502.09 85.0135 503.244 86.1243C504.41 87.2351 504.998 88.6889 505.009 90.4858C504.998 92.0649 504.535 93.4588 503.62 94.6676C502.716 95.8655 501.458 96.8021 499.847 97.4773C498.235 98.1525 496.384 98.4901 494.293 98.4901C491.222 98.4901 488.75 97.8475 486.876 96.5625C485.003 95.2666 483.887 93.4643 483.528 91.1555L489.294 90.6001C489.555 91.7327 490.111 92.5876 490.96 93.1648C491.81 93.742 492.915 94.0305 494.276 94.0305C495.681 94.0305 496.808 93.742 497.658 93.1648C498.518 92.5876 498.948 91.8743 498.948 91.0249C498.948 90.3061 498.67 89.7126 498.115 89.2443C497.571 88.776 496.721 88.4167 495.567 88.1662L491.287 87.2678C488.88 86.7668 487.1 85.9228 485.945 84.7358C484.791 83.5379 484.219 82.0241 484.23 80.1946C484.219 78.6482 484.638 77.3087 485.488 76.1761C486.348 75.0327 487.541 74.1506 489.065 73.5298C490.601 72.8982 492.37 72.5824 494.374 72.5824C497.315 72.5824 499.629 73.2086 501.317 74.4609C503.016 75.7133 504.067 77.4067 504.469 79.5412ZM524.012 98H517.544L529.321 64.5455H536.803L548.597 98H542.128L533.193 71.4062H532.931L524.012 98ZM524.225 84.8828H541.867V89.7507H524.225V84.8828ZM562.003 98.4901C559.498 98.4901 557.347 97.9401 555.55 96.8402C553.764 95.7403 552.387 94.2211 551.418 92.2827C550.459 90.3333 549.98 88.09 549.98 85.5526C549.98 83.0043 550.47 80.7554 551.45 78.8061C552.43 76.8459 553.813 75.3213 555.599 74.2322C557.396 73.1323 559.52 72.5824 561.97 72.5824C564.007 72.5824 565.809 72.9581 567.377 73.7095C568.956 74.45 570.214 75.5009 571.151 76.8622C572.087 78.2126 572.621 79.7917 572.751 81.5994H567.099C566.871 80.3906 566.326 79.3833 565.466 78.5774C564.616 77.7607 563.478 77.3523 562.052 77.3523C560.843 77.3523 559.781 77.679 558.866 78.3324C557.952 78.9749 557.238 79.9006 556.727 81.1094C556.226 82.3182 555.975 83.7666 555.975 85.4545C555.975 87.1643 556.226 88.6345 556.727 89.8651C557.227 91.0848 557.93 92.0268 558.834 92.6911C559.749 93.3445 560.821 93.6712 562.052 93.6712C562.923 93.6712 563.702 93.5078 564.388 93.1811C565.085 92.8435 565.667 92.3589 566.136 91.7273C566.604 91.0956 566.925 90.3279 567.099 89.424H572.751C572.61 91.1991 572.087 92.7727 571.183 94.1449C570.279 95.5062 569.049 96.5734 567.491 97.3466C565.934 98.1089 564.105 98.4901 562.003 98.4901ZM576.687 98V72.9091H582.421V77.0909H582.682C583.139 75.6425 583.923 74.5263 585.034 73.7422C586.156 72.9472 587.436 72.5497 588.873 72.5497C589.2 72.5497 589.565 72.566 589.968 72.5987C590.381 72.6205 590.724 72.6586 590.997 72.7131V78.1527C590.746 78.0656 590.349 77.9893 589.804 77.924C589.271 77.8478 588.753 77.8097 588.252 77.8097C587.174 77.8097 586.205 78.0438 585.345 78.5121C584.495 78.9695 583.825 79.6065 583.335 80.4233C582.845 81.2401 582.6 82.1821 582.6 83.2493V98H576.687ZM603.917 98.4901C601.466 98.4901 599.343 97.951 597.546 96.8729C595.749 95.7947 594.355 94.2865 593.364 92.348C592.384 90.4096 591.894 88.1444 591.894 85.5526C591.894 82.9607 592.384 80.6901 593.364 78.7408C594.355 76.7914 595.749 75.2777 597.546 74.1996C599.343 73.1214 601.466 72.5824 603.917 72.5824C606.367 72.5824 608.491 73.1214 610.287 74.1996C612.084 75.2777 613.473 76.7914 614.453 78.7408C615.444 80.6901 615.939 82.9607 615.939 85.5526C615.939 88.1444 615.444 90.4096 614.453 92.348C613.473 94.2865 612.084 95.7947 610.287 96.8729C608.491 97.951 606.367 98.4901 603.917 98.4901ZM603.949 93.7528C605.278 93.7528 606.389 93.388 607.282 92.6584C608.175 91.9179 608.839 90.9268 609.275 89.6854C609.721 88.4439 609.944 87.0608 609.944 85.5362C609.944 84.0007 609.721 82.6122 609.275 81.3707C608.839 80.1184 608.175 79.1219 607.282 78.3814C606.389 77.6409 605.278 77.2706 603.949 77.2706C602.588 77.2706 601.455 77.6409 600.552 78.3814C599.659 79.1219 598.989 80.1184 598.542 81.3707C598.107 82.6122 597.889 84.0007 597.889 85.5362C597.889 87.0608 598.107 88.4439 598.542 89.6854C598.989 90.9268 599.659 91.9179 600.552 92.6584C601.455 93.388 602.588 93.7528 603.949 93.7528ZM639.869 79.5412L634.479 80.1293C634.326 79.5848 634.059 79.0729 633.678 78.5938C633.308 78.1146 632.807 77.728 632.175 77.4339C631.544 77.1399 630.771 76.9929 629.856 76.9929C628.625 76.9929 627.591 77.2597 626.752 77.7933C625.925 78.3269 625.516 79.0185 625.527 79.8679C625.516 80.5975 625.783 81.1911 626.327 81.6484C626.883 82.1058 627.798 82.4815 629.072 82.7756L633.352 83.6903C635.726 84.2022 637.49 85.0135 638.644 86.1243C639.809 87.2351 640.398 88.6889 640.408 90.4858C640.398 92.0649 639.935 93.4588 639.02 94.6676C638.116 95.8655 636.858 96.8021 635.247 97.4773C633.635 98.1525 631.783 98.4901 629.693 98.4901C626.622 98.4901 624.149 97.8475 622.276 96.5625C620.403 95.2666 619.287 93.4643 618.928 91.1555L624.694 90.6001C624.955 91.7327 625.511 92.5876 626.36 93.1648C627.21 93.742 628.315 94.0305 629.676 94.0305C631.081 94.0305 632.208 93.742 633.058 93.1648C633.918 92.5876 634.348 91.8743 634.348 91.0249C634.348 90.3061 634.07 89.7126 633.515 89.2443C632.97 88.776 632.121 88.4167 630.967 88.1662L626.687 87.2678C624.28 86.7668 622.5 85.9228 621.345 84.7358C620.191 83.5379 619.619 82.0241 619.63 80.1946C619.619 78.6482 620.038 77.3087 620.888 76.1761C621.748 75.0327 622.941 74.1506 624.465 73.5298C626.001 72.8982 627.77 72.5824 629.774 72.5824C632.715 72.5824 635.029 73.2086 636.717 74.4609C638.416 75.7133 639.466 77.4067 639.869 79.5412ZM664.195 79.5412L658.805 80.1293C658.652 79.5848 658.386 79.0729 658.004 78.5938C657.634 78.1146 657.133 77.728 656.502 77.4339C655.87 77.1399 655.097 76.9929 654.182 76.9929C652.951 76.9929 651.917 77.2597 651.078 77.7933C650.251 78.3269 649.842 79.0185 649.853 79.8679C649.842 80.5975 650.109 81.1911 650.654 81.6484C651.209 82.1058 652.124 82.4815 653.398 82.7756L657.678 83.6903C660.052 84.2022 661.816 85.0135 662.97 86.1243C664.136 87.2351 664.724 88.6889 664.734 90.4858C664.724 92.0649 664.261 93.4588 663.346 94.6676C662.442 95.8655 661.184 96.8021 659.573 97.4773C657.961 98.1525 656.109 98.4901 654.019 98.4901C650.948 98.4901 648.475 97.8475 646.602 96.5625C644.729 95.2666 643.613 93.4643 643.254 91.1555L649.02 90.6001C649.281 91.7327 649.837 92.5876 650.686 93.1648C651.536 93.742 652.641 94.0305 654.002 94.0305C655.407 94.0305 656.534 93.742 657.384 93.1648C658.244 92.5876 658.674 91.8743 658.674 91.0249C658.674 90.3061 658.396 89.7126 657.841 89.2443C657.297 88.776 656.447 88.4167 655.293 88.1662L651.013 87.2678C648.606 86.7668 646.826 85.9228 645.671 84.7358C644.517 83.5379 643.945 82.0241 643.956 80.1946C643.945 78.6482 644.364 77.3087 645.214 76.1761C646.074 75.0327 647.267 74.1506 648.791 73.5298C650.327 72.8982 652.096 72.5824 654.1 72.5824C657.041 72.5824 659.355 73.2086 661.043 74.4609C662.742 75.7133 663.792 77.4067 664.195 79.5412ZM209.08 152V118.545H221.887C224.305 118.545 226.314 118.927 227.915 119.689C229.527 120.44 230.73 121.469 231.525 122.776C232.331 124.083 232.734 125.564 232.734 127.219C232.734 128.581 232.472 129.746 231.95 130.715C231.427 131.674 230.725 132.452 229.842 133.051C228.96 133.65 227.975 134.08 226.886 134.342V134.668C228.073 134.734 229.211 135.098 230.3 135.763C231.4 136.416 232.298 137.342 232.995 138.54C233.692 139.738 234.041 141.186 234.041 142.885C234.041 144.616 233.621 146.174 232.783 147.557C231.944 148.929 230.681 150.013 228.993 150.808C227.305 151.603 225.182 152 222.622 152H209.08ZM215.141 146.936H221.659C223.858 146.936 225.443 146.517 226.412 145.678C227.392 144.829 227.882 143.74 227.882 142.411C227.882 141.42 227.637 140.527 227.147 139.732C226.657 138.926 225.96 138.295 225.056 137.837C224.152 137.369 223.074 137.135 221.822 137.135H215.141V146.936ZM215.141 132.773H221.136C222.181 132.773 223.123 132.583 223.962 132.202C224.8 131.81 225.459 131.26 225.938 130.552C226.428 129.833 226.673 128.984 226.673 128.004C226.673 126.708 226.216 125.64 225.301 124.802C224.397 123.963 223.052 123.544 221.266 123.544H215.141V132.773ZM244.045 118.545V152H238.131V118.545H244.045ZM260.15 152.49C257.7 152.49 255.576 151.951 253.779 150.873C251.983 149.795 250.589 148.286 249.598 146.348C248.618 144.41 248.127 142.144 248.127 139.553C248.127 136.961 248.618 134.69 249.598 132.741C250.589 130.791 251.983 129.278 253.779 128.2C255.576 127.121 257.7 126.582 260.15 126.582C262.601 126.582 264.724 127.121 266.521 128.2C268.318 129.278 269.706 130.791 270.686 132.741C271.677 134.69 272.173 136.961 272.173 139.553C272.173 142.144 271.677 144.41 270.686 146.348C269.706 148.286 268.318 149.795 266.521 150.873C264.724 151.951 262.601 152.49 260.15 152.49ZM260.183 147.753C261.511 147.753 262.622 147.388 263.515 146.658C264.408 145.918 265.073 144.927 265.508 143.685C265.955 142.444 266.178 141.061 266.178 139.536C266.178 138.001 265.955 136.612 265.508 135.371C265.073 134.118 264.408 133.122 263.515 132.381C262.622 131.641 261.511 131.271 260.183 131.271C258.822 131.271 257.689 131.641 256.785 132.381C255.892 133.122 255.222 134.118 254.776 135.371C254.34 136.612 254.123 138.001 254.123 139.536C254.123 141.061 254.34 142.444 254.776 143.685C255.222 144.927 255.892 145.918 256.785 146.658C257.689 147.388 258.822 147.753 260.183 147.753ZM287.217 152.49C284.712 152.49 282.561 151.94 280.764 150.84C278.978 149.74 277.601 148.221 276.631 146.283C275.673 144.333 275.194 142.09 275.194 139.553C275.194 137.004 275.684 134.755 276.664 132.806C277.644 130.846 279.027 129.321 280.813 128.232C282.61 127.132 284.734 126.582 287.184 126.582C289.22 126.582 291.023 126.958 292.591 127.71C294.17 128.45 295.428 129.501 296.364 130.862C297.301 132.213 297.834 133.792 297.965 135.599H292.313C292.084 134.391 291.54 133.383 290.68 132.577C289.83 131.761 288.692 131.352 287.266 131.352C286.057 131.352 284.995 131.679 284.08 132.332C283.165 132.975 282.452 133.901 281.94 135.109C281.439 136.318 281.189 137.767 281.189 139.455C281.189 141.164 281.439 142.634 281.94 143.865C282.441 145.085 283.144 146.027 284.048 146.691C284.962 147.344 286.035 147.671 287.266 147.671C288.137 147.671 288.915 147.508 289.601 147.181C290.298 146.844 290.881 146.359 291.349 145.727C291.818 145.096 292.139 144.328 292.313 143.424H297.965C297.824 145.199 297.301 146.773 296.397 148.145C295.493 149.506 294.262 150.573 292.705 151.347C291.148 152.109 289.318 152.49 287.217 152.49ZM307.291 144.126L307.275 136.988H308.223L317.24 126.909H324.149L313.058 139.259H311.833L307.291 144.126ZM301.901 152V118.545H307.814V152H301.901ZM317.648 152L309.48 140.582L313.466 136.416L324.721 152H317.648ZM337.082 152.49C334.577 152.49 332.426 151.94 330.629 150.84C328.843 149.74 327.466 148.221 326.496 146.283C325.538 144.333 325.059 142.09 325.059 139.553C325.059 137.004 325.549 134.755 326.529 132.806C327.509 130.846 328.892 129.321 330.678 128.232C332.475 127.132 334.599 126.582 337.049 126.582C339.085 126.582 340.888 126.958 342.456 127.71C344.035 128.45 345.293 129.501 346.229 130.862C347.166 132.213 347.7 133.792 347.83 135.599H342.178C341.95 134.391 341.405 133.383 340.545 132.577C339.695 131.761 338.557 131.352 337.131 131.352C335.922 131.352 334.86 131.679 333.945 132.332C333.03 132.975 332.317 133.901 331.805 135.109C331.304 136.318 331.054 137.767 331.054 139.455C331.054 141.164 331.304 142.634 331.805 143.865C332.306 145.085 333.009 146.027 333.913 146.691C334.827 147.344 335.9 147.671 337.131 147.671C338.002 147.671 338.78 147.508 339.467 147.181C340.164 146.844 340.746 146.359 341.214 145.727C341.683 145.096 342.004 144.328 342.178 143.424H347.83C347.689 145.199 347.166 146.773 346.262 148.145C345.358 149.506 344.128 150.573 342.57 151.347C341.013 152.109 339.183 152.49 337.082 152.49ZM357.679 137.298V152H351.766V118.545H357.549V131.173H357.843C358.431 129.757 359.34 128.641 360.571 127.824C361.812 126.996 363.391 126.582 365.308 126.582C367.05 126.582 368.569 126.947 369.865 127.677C371.161 128.406 372.163 129.474 372.871 130.879C373.59 132.283 373.949 133.999 373.949 136.024V152H368.036V136.939C368.036 135.251 367.6 133.939 366.729 133.002C365.869 132.055 364.66 131.581 363.102 131.581C362.057 131.581 361.12 131.81 360.293 132.267C359.476 132.714 358.834 133.362 358.365 134.211C357.908 135.06 357.679 136.089 357.679 137.298ZM386.277 152.506C384.687 152.506 383.255 152.223 381.981 151.657C380.718 151.08 379.716 150.23 378.975 149.109C378.245 147.987 377.881 146.604 377.881 144.96C377.881 143.544 378.142 142.373 378.665 141.447C379.187 140.522 379.901 139.781 380.805 139.226C381.709 138.67 382.727 138.251 383.859 137.968C385.003 137.674 386.184 137.462 387.404 137.331C388.874 137.179 390.067 137.042 390.982 136.923C391.896 136.792 392.561 136.596 392.974 136.335C393.399 136.062 393.611 135.643 393.611 135.077V134.979C393.611 133.748 393.247 132.795 392.517 132.12C391.787 131.445 390.736 131.107 389.364 131.107C387.916 131.107 386.767 131.423 385.918 132.055C385.079 132.686 384.513 133.432 384.219 134.293L378.697 133.509C379.133 131.984 379.852 130.71 380.854 129.686C381.856 128.652 383.081 127.878 384.529 127.366C385.977 126.844 387.578 126.582 389.332 126.582C390.54 126.582 391.744 126.724 392.942 127.007C394.14 127.29 395.234 127.759 396.225 128.412C397.216 129.054 398.011 129.931 398.61 131.042C399.22 132.153 399.525 133.541 399.525 135.207V152H393.84V148.553H393.644C393.285 149.25 392.778 149.904 392.125 150.513C391.482 151.112 390.671 151.597 389.691 151.967C388.722 152.327 387.584 152.506 386.277 152.506ZM387.812 148.161C388.999 148.161 390.029 147.927 390.9 147.459C391.771 146.98 392.441 146.348 392.909 145.564C393.388 144.78 393.628 143.925 393.628 142.999V140.043C393.443 140.195 393.127 140.337 392.68 140.467C392.245 140.598 391.755 140.712 391.21 140.81C390.666 140.908 390.127 140.996 389.593 141.072C389.059 141.148 388.597 141.213 388.205 141.268C387.322 141.388 386.533 141.584 385.836 141.856C385.139 142.128 384.589 142.509 384.186 142.999C383.783 143.478 383.582 144.099 383.582 144.862C383.582 145.951 383.979 146.773 384.774 147.328C385.569 147.884 386.582 148.161 387.812 148.161ZM404.551 152V126.909H410.464V152H404.551ZM407.524 123.348C406.587 123.348 405.781 123.038 405.106 122.417C404.431 121.785 404.093 121.028 404.093 120.146C404.093 119.253 404.431 118.496 405.106 117.876C405.781 117.244 406.587 116.928 407.524 116.928C408.471 116.928 409.277 117.244 409.941 117.876C410.617 118.496 410.954 119.253 410.954 120.146C410.954 121.028 410.617 121.785 409.941 122.417C409.277 123.038 408.471 123.348 407.524 123.348ZM421.538 137.298V152H415.625V126.909H421.277V131.173H421.571C422.148 129.768 423.068 128.652 424.332 127.824C425.606 126.996 427.179 126.582 429.053 126.582C430.784 126.582 432.292 126.953 433.577 127.693C434.873 128.434 435.875 129.506 436.583 130.911C437.302 132.316 437.656 134.02 437.645 136.024V152H431.732V136.939C431.732 135.262 431.296 133.95 430.425 133.002C429.564 132.055 428.372 131.581 426.847 131.581C425.813 131.581 424.893 131.81 424.087 132.267C423.292 132.714 422.665 133.362 422.208 134.211C421.762 135.06 421.538 136.089 421.538 137.298ZM462.567 133.541L457.177 134.129C457.024 133.585 456.757 133.073 456.376 132.594C456.006 132.115 455.505 131.728 454.873 131.434C454.242 131.14 453.468 130.993 452.554 130.993C451.323 130.993 450.289 131.26 449.45 131.793C448.622 132.327 448.214 133.018 448.225 133.868C448.214 134.598 448.481 135.191 449.025 135.648C449.581 136.106 450.495 136.482 451.77 136.776L456.049 137.69C458.423 138.202 460.188 139.013 461.342 140.124C462.507 141.235 463.095 142.689 463.106 144.486C463.095 146.065 462.633 147.459 461.718 148.668C460.814 149.866 459.556 150.802 457.944 151.477C456.333 152.152 454.481 152.49 452.39 152.49C449.319 152.49 446.847 151.848 444.974 150.562C443.101 149.267 441.985 147.464 441.625 145.156L447.392 144.6C447.653 145.733 448.209 146.588 449.058 147.165C449.907 147.742 451.013 148.031 452.374 148.031C453.779 148.031 454.906 147.742 455.755 147.165C456.616 146.588 457.046 145.874 457.046 145.025C457.046 144.306 456.768 143.713 456.213 143.244C455.668 142.776 454.819 142.417 453.664 142.166L449.385 141.268C446.978 140.767 445.197 139.923 444.043 138.736C442.889 137.538 442.317 136.024 442.328 134.195C442.317 132.648 442.736 131.309 443.586 130.176C444.446 129.033 445.638 128.151 447.163 127.53C448.699 126.898 450.468 126.582 452.472 126.582C455.412 126.582 457.727 127.209 459.414 128.461C461.113 129.713 462.164 131.407 462.567 133.541ZM474.299 118.545L473.76 142.166H468.5L467.977 118.545H474.299ZM471.13 152.359C470.139 152.359 469.289 152.011 468.582 151.314C467.885 150.617 467.536 149.768 467.536 148.766C467.536 147.786 467.885 146.947 468.582 146.25C469.289 145.553 470.139 145.205 471.13 145.205C472.099 145.205 472.938 145.553 473.645 146.25C474.364 146.947 474.724 147.786 474.724 148.766C474.724 149.43 474.555 150.034 474.217 150.579C473.89 151.123 473.455 151.559 472.91 151.886C472.377 152.201 471.783 152.359 471.13 152.359Z" fill="white"/>
<path d="M313.452 50.5429C344.68 59.8873 462.148 48.1646 486.031 38.475" stroke="#0334F2" stroke-width="8" stroke-linecap="round"/>
<path d="M102.5 41.5C133 53 251 49.5 275.5 41.5" stroke="#0334F2" stroke-width="8" stroke-linecap="round"/>
<path d="M29.3828 112.636C65.5135 98.5813 208.646 92.081 238.871 97.987" stroke="#0334F2" stroke-width="8" stroke-linecap="round"/>
</svg>
